<svg xmlns="http://www.w3.org/2000/svg" viewBox="0 0 50 38" fill="none"><path xmlns="http://www.w3.org/2000/svg" d="M49.422 26.878v-9.62c0-2.791-2.36-6.347-5.159-6.347H35.38l-.008-2.24q0-.348-.045-.683c-.123-2.105-.892-2.812-1.41-3.848-.263-.51-1.435-2.41-3.77-3.359-.699-.28-1.5-.49-2.212-.62q-.005-.006-.016-.005A5.2 5.2 0 0 0 26.652 0H19.1a5.076 5.076 0 0 0-5.073 5.073v1.509c0 .768-.63 1.402-1.402 1.402H5.073A5.07 5.07 0 0 0 0 13.048V26.82a5.08 5.08 0 0 0 3.852 4.925 5.06 5.06 0 0 0 4.904 3.778l35.598-.045c2.795-.008 5.068-2.282 5.064-5.077l-.008-3.388c.008-.049.008-.09.008-.135zm-7.354-.058c0 .773-.633 1.398-1.402 1.398H5.073a1.397 1.397 0 0 1-1.402-1.398V13.048a1.4 1.4 0 0 1 1.402-1.393h3.042q.303-.037.613-.037h4.542a5.09 5.09 0 0 0 4.42-5.036V5.073c0-.773.633-1.402 1.401-1.402h7.552c.773 0 1.402.63 1.402 1.402v5.718a5.077 5.077 0 0 0 5.07 5.073h7.551c.769 0 1.402.625 1.402 1.398z" fill="#36C188"/><path xmlns="http://www.w3.org/2000/svg" d="M15.88 19.569a3.42 3.42 0 0 1-3.415 3.412 3.415 3.415 0 0 1-3.417-3.412 3.42 3.42 0 0 1 3.417-3.417 3.42 3.42 0 0 1 3.416 3.417m12.588 0a3.423 3.423 0 0 1-3.417 3.412 3.42 3.42 0 0 1-3.416-3.412 3.42 3.42 0 0 1 3.416-3.417 3.42 3.42 0 0 1 3.417 3.417" fill="#36C188"/></svg>
